<?xml version="1.0" encoding="utf-8"?>
<!-- Generator: Adobe Illustrator 16.0.4, SVG Export Plug-In . SVG Version: 6.00 Build 0)  -->
<!DOCTYPE svg PUBLIC "-//W3C//DTD SVG 1.1//EN" "http://www.w3.org/Graphics/SVG/1.1/DTD/svg11.dtd">
<svg version="1.1" id="Layer_1" xmlns="http://www.w3.org/2000/svg" xmlns:xlink="http://www.w3.org/1999/xlink" x="0px" y="0px"
	 width="2071.742px" height="471.079px" viewBox="0 0 2071.742 471.079" enable-background="new 0 0 2071.742 471.079"
	 xml:space="preserve">
<g>
	<path fill="#36D7B7" d="M415.459,197.481c-0.722-9.674-2.068-19.154-3.968-28.389l-1.477-6.619l-0.029-0.098
		C386.074,62.326,294.794-8.16,191.754,0c-9.414,0.745-18.63,2.121-27.618,4.091l-6.373,1.506l-0.064,0.016
		c-28.611,7.25-54.73,20.521-77.146,38.343c24.979,27.639,38.527,47.653,38.527,47.653c9.263,11.513,19.277,25.722,30.042,42.643
		c13.551-20.28,30.432-32.849,50.674-37.707c23.014-5.519,43.815-1.994,62.396,10.574c17.754,12.49,29.376,30.847,34.858,55.078
		c5.366,23.711,2.671,46.601-8.062,68.679c-10.741,22.08-28.029,36.185-58.315,45.584c0,0-0.728-5.062-4.586-23.702
		c-3.867-18.641-6.255-23.262-6.255-23.262c11.239-5.164,22.96-9.438,28.449-20.785c5.497-11.339,6.829-23.269,3.997-35.775
		c-2.527-11.196-7.58-19.736-15.151-25.61c-7.565-5.875-16.277-8.997-26.842-6.458c-12.587,3.02-27.998,14.327-38.502,38.274
		c14.21,29.822,27.784,61.386,33.679,87.43c14.906,65.912,8.704,102.145-18.612,108.705c-16.192,3.879-30.455-4.921-42.774-26.407
		c-7.97-14.013-14.439-31.967-19.385-53.848c-7.839-34.646-4.379-80.578,4.204-118.064c-16.599-24.846-25.296-33.654-44.489-54.258
		c-0.13-0.142-0.268-0.283-0.398-0.425C72.812,110.17,57.059,96.781,41.489,84.607C11.91,124.902-4.056,176.05,0,230.38
		c0.725,9.707,2.158,19.214,4.083,28.479l1.545,6.515l0.002,0.021l45.764,205.683L251.77,423.68l5.938-1.406l0.053-0.015
		C354.924,397.641,423.382,303.617,415.459,197.481"/>
	<path fill="#36D7B7" d="M178.275,282.571c-4.716-20.84-12.403-39.843-23.06-63.388c-2.495,26.699-1.516,38.188,0.858,57.183
		c2.557,20.431,9.401,38.163,17.792,50C185.732,343.105,182.701,302.11,178.275,282.571"/>
	<path fill="#36D7B7" d="M535.383,284.68v74.472h-28.62V131.625h65.143c18.974,2.53,34.839,10.225,47.594,23.085
		c14.863,14.862,22.293,32.626,22.293,53.284c0,20.768-7.537,38.738-22.609,53.917c-15.075,15.179-33.627,22.769-55.657,22.769
		H535.383z M535.383,156.607v103.091h28.144c13.282,0,24.876-4.927,34.786-14.784c9.907-9.855,14.862-22.161,14.862-36.92
		c0-14.65-4.955-26.879-14.862-36.682c-9.91-9.803-21.504-14.705-34.786-14.705H535.383z"/>
	<path fill="#36D7B7" d="M738.154,236.139c-13.071,2.003-23.191,7.194-30.358,15.574c-7.169,8.38-10.752,18.895-10.752,31.544
		v75.895h-28.617V214.635h28.617v20.555c4.215-11.278,13.282-19.132,27.196-23.559L738.154,236.139z"/>
	<path fill="#36D7B7" d="M803.447,173.447c3.845,3.743,5.77,7.933,5.77,12.57c0,4.85-1.925,9.146-5.77,12.887
		c-3.85,3.742-8.672,5.613-14.468,5.613c-6.009,0-10.909-1.871-14.704-5.613c-3.795-3.741-5.692-8.037-5.692-12.887
		c0-4.637,1.897-8.827,5.692-12.57c3.795-3.74,8.695-5.613,14.704-5.613C794.775,167.833,799.597,169.707,803.447,173.447
		 M803.052,359.152h-28.461V214.635h28.461V359.152z"/>
	<polygon fill="#36D7B7" points="977.838,214.636 913.327,359.153 895.302,359.153 831.424,214.636 862.888,214.636 
		904.314,310.927 946.372,214.636 	"/>
	<path fill="#36D7B7" d="M1161.32,359.152h-28.62v-25.298c-11.28,19.396-28.461,29.093-51.545,29.093
		c-22.875,0-42.243-7.931-58.108-23.797c-15.864-15.862-23.795-34.6-23.795-56.209c0-21.819,7.931-40.636,23.795-56.447
		c15.865-15.811,35.233-23.717,58.108-23.717c23.084,0,40.265,9.593,51.545,28.777v-16.919h28.62V359.152z M1132.7,294.325V271.24
		c-2.003-10.435-6.798-19.447-14.387-27.036c-10.648-10.752-23.034-16.128-37.158-16.128c-14.231,0-26.563,5.272-36.999,15.812
		c-10.436,10.541-15.652,23.559-15.652,39.054c0,15.392,5.216,28.302,15.652,38.738c10.436,10.435,22.768,15.653,36.999,15.653
		c14.124,0,26.51-5.321,37.158-15.97C1125.902,313.773,1130.697,304.761,1132.7,294.325"/>
	<polygon fill="#36D7B7" points="1217.044,214.636 1217.044,158.504 1245.505,158.504 1245.505,214.636 1272.384,214.636 
		1272.384,239.301 1245.505,239.301 1245.505,359.153 1217.044,359.153 1217.044,239.301 1190.166,239.301 1190.166,214.636 	"/>
	<path fill="#36D7B7" d="M1640.805,359.152h-28.62v-25.298c-11.28,19.396-28.461,29.093-51.545,29.093
		c-22.875,0-42.243-7.931-58.108-23.797c-15.864-15.862-23.795-34.6-23.795-56.209c0-21.819,7.931-40.636,23.795-56.447
		c15.865-15.811,35.233-23.717,58.108-23.717c23.084,0,40.265,9.593,51.545,28.777v-16.919h28.62V359.152z M1612.185,294.325V271.24
		c-2.003-10.435-6.798-19.447-14.387-27.036c-10.648-10.752-23.034-16.128-37.158-16.128c-14.231,0-26.564,5.272-36.999,15.812
		c-10.437,10.541-15.652,23.559-15.652,39.054c0,15.392,5.216,28.302,15.652,38.738c10.435,10.435,22.768,15.653,36.999,15.653
		c14.124,0,26.51-5.321,37.158-15.97C1605.387,313.773,1610.182,304.761,1612.185,294.325"/>
	<path fill="#36D7B7" d="M2071.742,236.139c-13.072,2.003-23.191,7.194-30.358,15.574c-7.169,8.38-10.752,18.895-10.752,31.544
		v75.895h-28.618V214.635h28.618v20.555c4.216-11.278,13.282-19.132,27.196-23.559L2071.742,236.139z"/>
	<path fill="#36D7B7" d="M1450.684,287.182c0-25.05-7.528-45.595-22.376-60.764c-15.024-15.35-34.071-22.86-58.23-22.86
		c-22.658,0-40.951,7.435-55.924,22.78c-15.011,15.385-22.308,34.231-22.308,57.644c0,22.791,7.309,41.192,22.34,56.266
		c15.024,15.073,34.036,22.398,58.12,22.398c15.445,0,28.896-2.742,39.979-8.146c9.202-4.486,17.428-11.122,24.522-19.772
		l-24.654-11.577c-11.36,9.868-24.849,14.866-40.144,14.866c-13.964,0-25.692-3.859-34.86-11.47
		c-9.205-7.643-14.936-17.816-17.03-30.625l-1.054-6.24h131.574L1450.684,287.182z M1319.755,267.682
		c5.045-18.25,13.036-25.622,19.229-30.202c9.473-7.036,20.611-10.645,33.102-10.645c11.562,0,21.898,3.182,30.723,9.497
		c8.887,6.363,15.163,13.101,19.077,31.351H1319.755z"/>
	<path fill="#36D7B7" d="M1971.513,287.182c0-25.05-7.528-45.595-22.376-60.764c-15.024-15.35-34.071-22.86-58.23-22.86
		c-22.658,0-40.951,7.435-55.924,22.78c-15.01,15.385-22.307,34.231-22.307,57.644c0,22.791,7.308,41.192,22.339,56.266
		c15.024,15.073,34.037,22.398,58.121,22.398c15.444,0,28.896-2.742,39.979-8.146c9.202-4.486,17.428-11.122,24.523-19.772
		l-24.655-11.577c-11.36,9.868-24.849,14.866-40.144,14.866c-13.965,0-25.692-3.859-34.859-11.47
		c-9.206-7.643-14.936-17.816-17.031-30.625l-1.054-6.24h131.575L1971.513,287.182z M1840.585,267.682
		c5.045-18.25,13.035-25.622,19.229-30.202c9.472-7.036,20.611-10.645,33.101-10.645c11.562,0,21.898,3.182,30.724,9.497
		c8.886,6.363,15.162,13.101,19.076,31.351H1840.585z"/>
	<path fill="#36D7B7" d="M1769.19,349.656c9.446-8.604,14.038-19.041,14.038-31.911c0-9.696-2.524-17.877-7.718-25.008
		c-5.297-7.267-15.477-14.653-30.262-21.952l-14.906-7.451c-9.396-4.624-12.304-7.122-13.781-8.782
		c-2.526-2.831-3.862-6.189-3.862-9.715c0-4.635,2.104-8.665,6.085-11.65c3.546-2.66,8.269-4.009,14.038-4.009
		c8.76,0,17.859,4.264,27.703,13.001l17.834-17.833c-5.308-6.117-11.553-10.985-18.618-14.5c-8.461-4.205-17.62-6.338-27.218-6.338
		c-14.064,0-25.223,3.975-34.115,12.153c-8.758,8.051-13.014,17.447-13.014,28.728c0,17.729,11.852,32.318,36.233,44.6l13.672,6.838
		c13.982,7.049,20.771,14.654,20.771,23.258c0,3.536-1.219,8.71-7.026,13.281c-4.25,3.353-9.759,5.055-16.369,5.055
		c-5.939,0-12.368-1.893-19.65-5.788c-5.156-2.758-9.866-6.183-14.066-10.223l-17.743,19.328
		c12.683,14.729,28.833,21.905,49.229,21.905C1746.693,362.643,1759.731,358.273,1769.19,349.656"/>
</g>
</svg>
